inDegrees=no
num_controls=7
num_derivatives=13
num_iterations=142
num_multipliers=7
num_parameters=0
num_slacks=7
num_states=26
objective=0.483152
objective_accelerations=0.041730
objective_balance=0.003074
objective_effort=0.041223
objective_height=0.391472
objective_ligament=0.005654
solver_duration=2668.614453
status=Solve_Succeeded
success=true
DataType=double
version=3
OpenSimVersion=4.5
endheader
time	/jointset/ground_pelvis/pelvis_tilt/value	/jointset/ground_pelvis/pelvis_tx/value	/jointset/ground_pelvis/pelvis_ty/value	/jointset/hip_l/hip_flexion_l/value	/jointset/hip_l/hip_adduction_l/value	/jointset/hip_l/hip_rotation_l/value	/jointset/back/lumbar_extension/value	/jointset/patellofemoral_l/patellar_flexion_l/value	/jointset/knee_l/knee_flexion_l/value	/jointset/knee_l/knee_adduction_l/value	/jointset/knee_l/knee_rotation_l/value	/jointset/ankle_l/ankle_angle_l/value	/jointset/subtalar_l/subtalar_angle_l/value	/jointset/ground_pelvis/pelvis_tilt/speed	/jointset/ground_pelvis/pelvis_tx/speed	/jointset/ground_pelvis/pelvis_ty/speed	/jointset/hip_l/hip_flexion_l/speed	/jointset/hip_l/hip_adduction_l/speed	/jointset/hip_l/hip_rotation_l/speed	/jointset/back/lumbar_extension/speed	/jointset/patellofemoral_l/patellar_flexion_l/speed	/jointset/knee_l/knee_flexion_l/speed	/jointset/knee_l/knee_adduction_l/speed	/jointset/knee_l/knee_rotation_l/speed	/jointset/ankle_l/ankle_angle_l/speed	/jointset/subtalar_l/subtalar_angle_l/speed	/forceset/tau_hip_flexion_l	/forceset/tau_hip_adduction_l	/forceset/tau_hip_rotation_l	/forceset/tau_knee_flexion_l	/forceset/tau_ankle_angle_l	/forceset/tau_subtalar_angle_l	/forceset/tau_lumbar_extension	lambda_cid13_p0	lambda_cid13_p1	lambda_cid13_p2	lambda_cid13_p3	lambda_cid13_p4	lambda_cid13_p5	lambda_cid14_p0	/jointset/ground_pelvis/pelvis_tilt/accel	/jointset/ground_pelvis/pelvis_tx/accel	/jointset/ground_pelvis/pelvis_ty/accel	/jointset/hip_l/hip_flexion_l/accel	/jointset/hip_l/hip_adduction_l/accel	/jointset/hip_l/hip_rotation_l/accel	/jointset/back/lumbar_extension/accel	/jointset/patellofemoral_l/patellar_flexion_l/accel	/jointset/knee_l/knee_flexion_l/accel	/jointset/knee_l/knee_adduction_l/accel	/jointset/knee_l/knee_rotation_l/accel	/jointset/ankle_l/ankle_angle_l/accel	/jointset/subtalar_l/subtalar_angle_l/accel	gamma_cid13_p0	gamma_cid13_p1	gamma_cid13_p2	gamma_cid13_p3	gamma_cid13_p4	gamma_cid13_p5	gamma_cid14_p0
0.5	-0.03143212204895678	-0.01569437841743718	0.819057308669889	0.8254390181557895	-0.3283832034060948	-0.08447982782156915	-0.7729662824286373	0.9307616734444755	0.9307616734443628	-0.09266531774849653	-0.1745266893366471	0.2043800742600756	0.03597131816723027	0.03330584357715312	-0.1213408177063332	-0.3823916015084945	1.339686687302065	-0.04053019219302949	0.5405504694709463	-0.8501747850585387	1.79471182383351	1.794711823833693	0.1630685050728273	4.27850248713499e-05	0.5449539334861764	0.1565271291878566	-0.2215506050624661	-0.02447144503817222	-0.006058094557126132	-0.2712942590951958	0.04040973625378369	0.08189419327822596	0.2957674133153412	-29.08071738760153	-35.02950721095253	10.33289649349398	-4.02865426869301	-697.034701333214	-118.5277411163883	-9.349930601645726	0.1416037203376603	0.4921398593953074	-0.2261134603049256	-1.243509799204265	0.2585874400289905	-0.5150175576048398	1.606110687642053	-1.487089120457638	-1.487089120457665	-0.2827104707235603	-0.008567081506438617	-0.476442342623225	0.2357188570972756	-2.044120383446568e-07	1.785190067646952e-07	1.502952320911181e-06	1.646697974447211e-07	-2.510872674227046e-07	-1.337245142931706e-07	-1.61399490790294e-07
0.51	-0.03109205154812663	-0.01688312436177816	0.8152229555876942	0.8387717153219406	-0.3287761176640194	-0.07909888912062708	-0.7813866499786849	0.9486317091907369	0.9486317091906601	-0.09105104790176255	-0.1745261553720633	0.2098047677463558	0.03754735861282824	0.03470868236461525	-0.1164037814989865	-0.3843892315237825	1.326659399895645	-0.03805463516015423	0.5355644399943069	-0.8337986719796494	1.779041706439594	1.77904170643995	0.1597968361194719	5.802363836184845e-05	0.5399091196613693	0.1586558550913148	-0.2264702538219241	-0.02285465803830319	-0.006141262066784611	-0.2756596346188985	0.03921344751942035	0.08078879786609887	0.3012915985900079	-29.733905311457	-34.38349292314136	10.17099499191782	-3.768183646237817	-701.2362019740855	-117.5172450772864	-8.616443068205935	0.1396679744589546	0.4952071362113933	-0.173168794474377	-1.361367392405062	0.2414991630469233	-0.5014753489144522	1.668369563711094	-1.644984451553074	-1.644984451527101	-0.3476315231189332	0.005962994865126062	-0.5298333130763715	0.1974759992630528	-1.97712466565146e-07	1.603664564171628e-07	1.468224644033069e-06	1.584243285896856e-07	-2.406116480462408e-07	-1.108872524289828e-07	-1.601107765155982e-07
0.52	-0.03073794385612011	-0.01802235561708426	0.8113713100008797	0.8519683337778183	-0.3291443844859893	-0.07377002665569543	-0.7896402548088041	0.9663374414825201	0.9663374414824815	-0.08946914202765713	-0.1745255902889271	0.2151767466122547	0.0391438916259194	0.03611328181241554	-0.1114378798993571	-0.3858501024324175	1.312470945247453	-0.03560070500207388	0.530135222268829	-0.8168222410728117	1.761851132937898	1.761851132938427	0.1565957105470201	4.900873538573779e-05	0.5344110094098848	0.1606256426864912	-0.2313899025813834	-0.02123787103843377	-0.006224429576439357	-0.2800250101426014	0.0380171587850572	0.07968340245397232	0.3068157838646734	-30.38942256929333	-33.73099076003383	10.00111600313684	-3.54074153796322	-705.4898617162622	-116.5408378677328	-7.88585442153298	0.14195585240529	0.4979129378518621	-0.1187616389743646	-1.475743247558934	0.2542620650700058	-0.6036552073725343	1.726174253231737	-1.791180342013831	-1.791180342013738	-0.2686017945428532	-0.01341778479976237	-0.5671016279587312	0.2039311954409158	-1.980980366613438e-07	6.668677610313807e-08	1.428443873882821e-06	1.43266148125828e-07	-2.364596190037287e-07	-1.248281349389481e-07	-1.659494966596528e-07
0.53	-0.03036976643851865	-0.01911182460245734	0.807507762734727	0.8650173078937954	-0.3294883300756007	-0.06849768330428972	-0.79772129578067	0.9838638095625765	0.9838638095627186	-0.08791902214693711	-0.1745254437420918	0.2204915326841899	0.04075918789475538	0.03752149692940348	-0.1064550648471476	-0.3867680197140016	1.297138483659189	-0.03319594056881096	0.5242860764200263	-0.7993019087112367	1.743182861433513	1.743182861433931	0.1534188518585729	-1.459797818874877e-05	0.528477679519857	0.1624021653316766	-0.2360373040020332	-0.01988544424806371	-0.006249060923877663	-0.2845998637180656	0.03697104053967042	0.07857631367515426	0.3120928391412844	-30.99583743559613	-33.08053186192151	9.824914796126222	-3.287428381058076	-709.6741635390609	-115.6286794027699	-7.177444682741735	0.140129916226259	0.4986206989797237	-0.06465396588233605	-1.589832128440497	0.2322389491412528	-0.5828133210965956	1.777569415989627	-1.940559997377832	-1.940559997394536	-0.3436192855876964	-0.001792366201795218	-0.6167215817382085	0.1596277390865165	-1.898475603492084e-07	4.956698012013661e-08	1.381254346247907e-06	1.361170146235277e-07	-2.253146704466414e-07	-1.024273316997424e-07	-1.630044623372245e-07
0.54	-0.02998753175477116	-0.02015143445529348	0.8036377668571321	0.8779073904910937	-0.3298084969575422	-0.06328528522086405	-0.8056246120912465	1.001196313039044	1.001196313039366	-0.0864009491290206	-0.1745257253127047	0.2257449308747824	0.04239127237804906	0.03892473504161933	-0.1014660533919685	-0.3871398247208623	1.28069264151171	-0.03084496346807573	0.5181461686727259	-0.7812773088148917	1.723078212220046	1.723078212220352	0.1501863379864444	-3.661475438333169e-05	0.5221334331412932	0.1639832855780289	-0.2406847054226837	-0.01853301745769225	-0.006273692271325853	-0.2891747172935297	0.03592492229428421	0.07746922489633833	0.3173698944178944	-31.60398483800806	-32.42754126412076	9.645766002704521	-3.072241741187772	-713.8966702939978	-114.756044262784	-6.50482507134045	0.1409604514508705	0.4991522184457843	-0.009539184029668196	-1.698419359401897	0.2435045985644649	-0.6618075870720628	1.827027760185776	-2.078455883830313	-2.078455883830373	-0.2797328312790994	-0.005099797323782067	-0.6492849256659106	0.1648507156742985	-1.720423092874277e-07	1.17151737014013e-07	1.325867895438469e-06	1.37828954355291e-07	-2.064328747670452e-07	-3.981870592953851e-08	-1.50341231583794e-07
